<svg width="512" height="512" viewBox="0 0 512 512" fill="none" xmlns="http://www.w3.org/2000/svg">
<rect width="512" height="512" fill="white"/>
<rect width="512" height="512" fill="#36D69D"/>
<g clip-path="url(#clip0_868_1712)">
<path d="M155.406 437.817C168.98 424.926 162.454 396.068 140.829 373.36C119.204 350.652 90.6693 342.693 77.0949 355.584C63.5205 368.474 70.0467 397.332 91.6717 420.04C113.297 442.748 141.831 450.707 155.406 437.817Z" fill="black"/>
<path d="M374.698 141.39C308.183 71.5459 221.099 46.4313 180.184 85.2678C158.462 105.893 154.134 140.38 164.784 178.655C166.836 186.035 162.48 193.724 155.005 195.407C146.659 197.287 139.297 200.991 133.339 206.66C104.761 233.795 119.261 295.333 165.712 344.131C212.163 392.901 273.001 410.467 301.552 383.304C307.987 377.187 312.258 369.302 314.45 360.21C316.305 352.549 324.06 348.059 331.62 350.332C367.504 361.108 400.214 357.909 421.009 338.182C461.924 299.317 441.185 211.234 374.67 141.39H374.698Z" fill="black"/>
</g>
<defs>
<clipPath id="clip0_868_1712">
<rect width="372" height="377" fill="white" transform="translate(70 67)"/>
</clipPath>
</defs>
</svg>
