<svg width="141" height="140" viewBox="0 0 141 140" fill="none" xmlns="http://www.w3.org/2000/svg">
<path d="M135.479 57C137.697 57 139.496 58.798 139.496 61.0166V87.5439C133.958 87.8031 129.548 92.3745 129.548 97.9766C129.548 103.579 133.958 108.15 139.496 108.409V134.936C139.496 137.154 137.697 138.953 135.479 138.953H4.51392C2.2952 138.953 0.496338 137.154 0.496338 134.936V108.409C0.660757 108.417 0.826111 108.422 0.992432 108.422C6.76109 108.422 11.4377 103.745 11.4377 97.9766C11.4375 92.2081 6.76097 87.5322 0.992432 87.5322C0.826123 87.5322 0.660745 87.5363 0.496338 87.5439V61.0166C0.496495 58.798 2.2953 57 4.51392 57H135.479Z" fill="#D6D9E4" fill-opacity="0.2"/>
<path d="M139.496 61.0166H139.993V61.0166L139.496 61.0166ZM139.496 87.5439L139.52 88.0398C139.784 88.0274 139.993 87.8091 139.993 87.5439H139.496ZM129.548 97.9766L129.052 97.9765V97.9766H129.548ZM139.496 108.409H139.993C139.993 108.144 139.784 107.926 139.52 107.913L139.496 108.409ZM0.496338 108.409L0.519545 107.913C0.384005 107.907 0.251776 107.956 0.153613 108.05C0.0554499 108.144 -9.06885e-05 108.273 -9.06885e-05 108.409H0.496338ZM0.992432 108.422L0.992415 108.918H0.992432V108.422ZM11.4377 97.9766H11.9342V97.9765L11.4377 97.9766ZM0.992432 87.5322V87.0358H0.992415L0.992432 87.5322ZM0.496338 87.5439H-9.06885e-05C-9.06885e-05 87.6796 0.0554497 87.8094 0.153612 87.9031C0.251775 87.9968 0.384003 88.0462 0.519543 88.0398L0.496338 87.5439ZM0.496338 61.0166L-9.06885e-05 61.0166V61.0166H0.496338ZM133.432 56.5036C133.158 56.5036 132.936 56.7258 132.936 57C132.936 57.2742 133.158 57.4964 133.432 57.4964V57V56.5036ZM129.34 57.4964C129.614 57.4964 129.836 57.2742 129.836 57C129.836 56.7258 129.614 56.5036 129.34 56.5036V57V57.4964ZM125.247 56.5036C124.973 56.5036 124.751 56.7258 124.751 57C124.751 57.2742 124.973 57.4964 125.247 57.4964V57V56.5036ZM121.154 57.4964C121.429 57.4964 121.651 57.2742 121.651 57C121.651 56.7258 121.429 56.5036 121.154 56.5036V57V57.4964ZM117.062 56.5036C116.788 56.5036 116.565 56.7258 116.565 57C116.565 57.2742 116.788 57.4964 117.062 57.4964V57V56.5036ZM112.969 57.4964C113.243 57.4964 113.466 57.2742 113.466 57C113.466 56.7258 113.243 56.5036 112.969 56.5036V57V57.4964ZM108.877 56.5036C108.602 56.5036 108.38 56.7258 108.38 57C108.38 57.2742 108.602 57.4964 108.877 57.4964V57V56.5036ZM104.784 57.4964C105.058 57.4964 105.28 57.2742 105.28 57C105.28 56.7258 105.058 56.5036 104.784 56.5036V57V57.4964ZM100.691 56.5036C100.417 56.5036 100.195 56.7258 100.195 57C100.195 57.2742 100.417 57.4964 100.691 57.4964V57V56.5036ZM96.5986 57.4964C96.8727 57.4964 97.095 57.2742 97.095 57C97.095 56.7258 96.8727 56.5036 96.5986 56.5036V57V57.4964ZM92.5059 56.5036C92.2318 56.5036 92.0095 56.7258 92.0095 57C92.0095 57.2742 92.2318 57.4964 92.5059 57.4964V57V56.5036ZM88.4133 57.4964C88.6874 57.4964 88.9097 57.2742 88.9097 57C88.9097 56.7258 88.6874 56.5036 88.4133 56.5036V57V57.4964ZM84.3206 56.5036C84.0464 56.5036 83.8242 56.7258 83.8242 57C83.8242 57.2742 84.0464 57.4964 84.3206 57.4964V57V56.5036ZM80.228 57.4964C80.5021 57.4964 80.7244 57.2742 80.7244 57C80.7244 56.7258 80.5021 56.5036 80.228 56.5036V57V57.4964ZM76.1353 56.5036C75.8611 56.5036 75.6389 56.7258 75.6389 57C75.6389 57.2742 75.8611 57.4964 76.1353 57.4964V57V56.5036ZM72.0427 57.4964C72.3168 57.4964 72.5391 57.2742 72.5391 57C72.5391 56.7258 72.3168 56.5036 72.0427 56.5036V57V57.4964ZM67.95 56.5036C67.6758 56.5036 67.4536 56.7258 67.4536 57C67.4536 57.2742 67.6758 57.4964 67.95 57.4964V57V56.5036ZM63.8574 57.4964C64.1315 57.4964 64.3538 57.2742 64.3538 57C64.3538 56.7258 64.1315 56.5036 63.8574 56.5036V57V57.4964ZM59.7647 56.5036C59.4905 56.5036 59.2683 56.7258 59.2683 57C59.2683 57.2742 59.4905 57.4964 59.7647 57.4964V57V56.5036ZM55.6721 57.4964C55.9462 57.4964 56.1685 57.2742 56.1685 57C56.1685 56.7258 55.9462 56.5036 55.6721 56.5036V57V57.4964ZM51.5794 56.5036C51.3052 56.5036 51.083 56.7258 51.083 57C51.083 57.2742 51.3052 57.4964 51.5794 57.4964V57V56.5036ZM47.4868 57.4964C47.7609 57.4964 47.9832 57.2742 47.9832 57C47.9832 56.7258 47.7609 56.5036 47.4868 56.5036V57V57.4964ZM43.3941 56.5036C43.1199 56.5036 42.8977 56.7258 42.8977 57C42.8977 57.2742 43.1199 57.4964 43.3941 57.4964V57V56.5036ZM39.3015 57.4964C39.5756 57.4964 39.7979 57.2742 39.7979 57C39.7979 56.7258 39.5756 56.5036 39.3015 56.5036V57V57.4964ZM35.2088 56.5036C34.9346 56.5036 34.7124 56.7258 34.7124 57C34.7124 57.2742 34.9346 57.4964 35.2088 57.4964V57V56.5036ZM31.1161 57.4964C31.3903 57.4964 31.6126 57.2742 31.6126 57C31.6126 56.7258 31.3903 56.5036 31.1161 56.5036V57V57.4964ZM27.0235 56.5036C26.7493 56.5036 26.5271 56.7258 26.5271 57C26.5271 57.2742 26.7493 57.4964 27.0235 57.4964V57V56.5036ZM22.9308 57.4964C23.205 57.4964 23.4273 57.2742 23.4273 57C23.4273 56.7258 23.205 56.5036 22.9308 56.5036V57V57.4964ZM18.8382 56.5036C18.564 56.5036 18.3418 56.7258 18.3418 57C18.3418 57.2742 18.564 57.4964 18.8382 57.4964V57V56.5036ZM14.7455 57.4964C15.0197 57.4964 15.242 57.2742 15.242 57C15.242 56.7258 15.0197 56.5036 14.7455 56.5036V57V57.4964ZM10.6529 56.5036C10.3787 56.5036 10.1565 56.7258 10.1565 57C10.1565 57.2742 10.3787 57.4964 10.6529 57.4964V57V56.5036ZM6.56024 57.4964C6.83441 57.4964 7.05667 57.2742 7.05667 57C7.05667 56.7258 6.83441 56.5036 6.56024 56.5036V57V57.4964ZM2.7861 56.8461C2.53283 56.9511 2.41263 57.2416 2.51762 57.4948C2.62261 57.7481 2.91304 57.8683 3.16631 57.7633L2.97621 57.3047L2.7861 56.8461ZM1.25984 59.6692C1.3649 59.4159 1.24477 59.1255 0.991521 59.0204C0.738277 58.9154 0.447818 59.0355 0.342764 59.2887L0.801303 59.479L1.25984 59.6692ZM-9.06885e-05 63.2272C-9.06885e-05 63.5014 0.222168 63.7236 0.496338 63.7236C0.770508 63.7236 0.992766 63.5014 0.992766 63.2272H0.496338H-9.06885e-05ZM0.992766 67.6484C0.992766 67.3743 0.770508 67.152 0.496338 67.152C0.222168 67.152 -9.06885e-05 67.3743 -9.06885e-05 67.6484H0.496338H0.992766ZM-9.06885e-05 72.0697C-9.06885e-05 72.3438 0.222168 72.5661 0.496338 72.5661C0.770508 72.5661 0.992766 72.3438 0.992766 72.0697H0.496338H-9.06885e-05ZM0.992766 76.4909C0.992766 76.2167 0.770508 75.9945 0.496338 75.9945C0.222168 75.9945 -9.06885e-05 76.2167 -9.06885e-05 76.4909H0.496338H0.992766ZM-9.06885e-05 80.9121C-9.06885e-05 81.1863 0.222168 81.4085 0.496338 81.4085C0.770508 81.4085 0.992766 81.1863 0.992766 80.9121H0.496338H-9.06885e-05ZM0.992766 85.3333C0.992766 85.0592 0.770508 84.8369 0.496338 84.8369C0.222168 84.8369 -9.06885e-05 85.0592 -9.06885e-05 85.3333H0.496338H0.992766ZM0.637837 88.035C0.911836 88.0253 1.12611 87.7953 1.11642 87.5213C1.10674 87.2473 0.876766 87.033 0.602767 87.0427L0.620302 87.5389L0.637837 88.035ZM0.862428 87.0366C0.588278 87.0399 0.368693 87.2648 0.371972 87.5389C0.375251 87.8131 0.600152 88.0326 0.874303 88.0294L0.868365 87.533L0.862428 87.0366ZM2.93453 88.218C3.20349 88.2712 3.46465 88.0963 3.51785 87.8273C3.57105 87.5584 3.39615 87.2972 3.12719 87.244L3.03086 87.731L2.93453 88.218ZM7.07194 88.8788C6.8441 88.7263 6.53577 88.7873 6.38326 89.0152C6.23074 89.243 6.29181 89.5513 6.51964 89.7038L6.79579 89.2913L7.07194 88.8788ZM9.26571 92.4496C9.41825 92.6774 9.72659 92.7384 9.9544 92.5859C10.1822 92.4333 10.2432 92.125 10.0907 91.8972L9.6782 92.1734L9.26571 92.4496ZM11.7258 95.8418C11.6726 95.5728 11.4115 95.3979 11.1425 95.4512C10.8735 95.5044 10.6987 95.7656 10.7519 96.0345L11.2389 95.9381L11.7258 95.8418ZM10.7519 99.9187C10.6987 100.188 10.8736 100.449 11.1426 100.502C11.4115 100.555 11.6727 100.38 11.7259 100.111L11.2389 100.015L10.7519 99.9187ZM10.0909 104.056C10.2434 103.828 10.1823 103.52 9.95452 103.368C9.7267 103.215 9.41836 103.276 9.26583 103.504L9.67835 103.78L10.0909 104.056ZM6.5198 106.25C6.29197 106.402 6.23093 106.711 6.38346 106.939C6.53599 107.166 6.84433 107.228 7.07215 107.075L6.79597 106.662L6.5198 106.25ZM3.1273 108.71C3.39625 108.657 3.57115 108.396 3.51794 108.127C3.46473 107.858 3.20356 107.683 2.9346 107.736L3.03095 108.223L3.1273 108.71ZM0.87539 107.925C0.601248 107.921 0.375864 108.14 0.371982 108.414C0.368099 108.688 0.587188 108.913 0.861331 108.917L0.86836 108.421L0.87539 107.925ZM0.601663 108.911C0.875639 108.921 1.10609 108.707 1.11638 108.433C1.12667 108.159 0.912918 107.929 0.638941 107.918L0.620302 108.414L0.601663 108.911ZM-9.06885e-05 110.62C-9.06885e-05 110.894 0.222168 111.116 0.496338 111.116C0.770508 111.116 0.992766 110.894 0.992766 110.62H0.496338H-9.06885e-05ZM0.992766 115.041C0.992766 114.767 0.770508 114.544 0.496338 114.544C0.222168 114.544 -9.06885e-05 114.767 -9.06885e-05 115.041H0.496338H0.992766ZM-9.06885e-05 119.462C-9.06885e-05 119.736 0.222168 119.958 0.496338 119.958C0.770508 119.958 0.992766 119.736 0.992766 119.462H0.496338H-9.06885e-05ZM0.992766 123.883C0.992766 123.609 0.770508 123.386 0.496338 123.386C0.222168 123.386 -9.06885e-05 123.609 -9.06885e-05 123.883H0.496338H0.992766ZM-9.06885e-05 128.304C-9.06885e-05 128.578 0.222168 128.8 0.496338 128.8C0.770508 128.8 0.992766 128.578 0.992766 128.304H0.496338H-9.06885e-05ZM0.992766 132.725C0.992766 132.451 0.770508 132.229 0.496338 132.229C0.222168 132.229 -9.06885e-05 132.451 -9.06885e-05 132.725H0.496338H0.992766ZM0.342667 136.664C0.447697 136.917 0.738144 137.037 0.991399 136.932C1.24465 136.827 1.36481 136.536 1.25978 136.283L0.801225 136.473L0.342667 136.664ZM3.16623 138.19C2.91298 138.085 2.62253 138.205 2.5175 138.458C2.41247 138.711 2.53263 139.002 2.78589 139.107L2.97606 138.648L3.16623 138.19ZM6.56024 139.45C6.83441 139.45 7.05667 139.227 7.05667 138.953C7.05667 138.679 6.83441 138.457 6.56024 138.457V138.953V139.45ZM10.6529 138.457C10.3787 138.457 10.1565 138.679 10.1565 138.953C10.1565 139.227 10.3787 139.45 10.6529 139.45V138.953V138.457ZM14.7455 139.45C15.0197 139.45 15.242 139.227 15.242 138.953C15.242 138.679 15.0197 138.457 14.7455 138.457V138.953V139.45ZM18.8382 138.457C18.564 138.457 18.3418 138.679 18.3418 138.953C18.3418 139.227 18.564 139.45 18.8382 139.45V138.953V138.457ZM22.9308 139.45C23.205 139.45 23.4273 139.227 23.4273 138.953C23.4273 138.679 23.205 138.457 22.9308 138.457V138.953V139.45ZM27.0235 138.457C26.7493 138.457 26.5271 138.679 26.5271 138.953C26.5271 139.227 26.7493 139.45 27.0235 139.45V138.953V138.457ZM31.1161 139.45C31.3903 139.45 31.6126 139.227 31.6126 138.953C31.6126 138.679 31.3903 138.457 31.1161 138.457V138.953V139.45ZM35.2088 138.457C34.9346 138.457 34.7124 138.679 34.7124 138.953C34.7124 139.227 34.9346 139.45 35.2088 139.45V138.953V138.457ZM39.3015 139.45C39.5756 139.45 39.7979 139.227 39.7979 138.953C39.7979 138.679 39.5756 138.457 39.3015 138.457V138.953V139.45ZM43.3941 138.457C43.1199 138.457 42.8977 138.679 42.8977 138.953C42.8977 139.227 43.1199 139.45 43.3941 139.45V138.953V138.457ZM47.4868 139.45C47.7609 139.45 47.9832 139.227 47.9832 138.953C47.9832 138.679 47.7609 138.457 47.4868 138.457V138.953V139.45ZM51.5794 138.457C51.3052 138.457 51.083 138.679 51.083 138.953C51.083 139.227 51.3052 139.45 51.5794 139.45V138.953V138.457ZM55.6721 139.45C55.9462 139.45 56.1685 139.227 56.1685 138.953C56.1685 138.679 55.9462 138.457 55.6721 138.457V138.953V139.45ZM59.7647 138.457C59.4905 138.457 59.2683 138.679 59.2683 138.953C59.2683 139.227 59.4905 139.45 59.7647 139.45V138.953V138.457ZM63.8574 139.45C64.1315 139.45 64.3538 139.227 64.3538 138.953C64.3538 138.679 64.1315 138.457 63.8574 138.457V138.953V139.45ZM67.95 138.457C67.6758 138.457 67.4536 138.679 67.4536 138.953C67.4536 139.227 67.6758 139.45 67.95 139.45V138.953V138.457ZM72.0427 139.45C72.3168 139.45 72.5391 139.227 72.5391 138.953C72.5391 138.679 72.3168 138.457 72.0427 138.457V138.953V139.45ZM76.1353 138.457C75.8611 138.457 75.6389 138.679 75.6389 138.953C75.6389 139.227 75.8611 139.45 76.1353 139.45V138.953V138.457ZM80.228 139.45C80.5021 139.45 80.7244 139.227 80.7244 138.953C80.7244 138.679 80.5021 138.457 80.228 138.457V138.953V139.45ZM84.3206 138.457C84.0464 138.457 83.8242 138.679 83.8242 138.953C83.8242 139.227 84.0464 139.45 84.3206 139.45V138.953V138.457ZM88.4133 139.45C88.6874 139.45 88.9097 139.227 88.9097 138.953C88.9097 138.679 88.6874 138.457 88.4133 138.457V138.953V139.45ZM92.5059 138.457C92.2318 138.457 92.0095 138.679 92.0095 138.953C92.0095 139.227 92.2318 139.45 92.5059 139.45V138.953V138.457ZM96.5986 139.45C96.8727 139.45 97.095 139.227 97.095 138.953C97.095 138.679 96.8727 138.457 96.5986 138.457V138.953V139.45ZM100.691 138.457C100.417 138.457 100.195 138.679 100.195 138.953C100.195 139.227 100.417 139.45 100.691 139.45V138.953V138.457ZM104.784 139.45C105.058 139.45 105.28 139.227 105.28 138.953C105.28 138.679 105.058 138.457 104.784 138.457V138.953V139.45ZM108.877 138.457C108.602 138.457 108.38 138.679 108.38 138.953C108.38 139.227 108.602 139.45 108.877 139.45V138.953V138.457ZM112.969 139.45C113.243 139.45 113.466 139.227 113.466 138.953C113.466 138.679 113.243 138.457 112.969 138.457V138.953V139.45ZM117.062 138.457C116.788 138.457 116.565 138.679 116.565 138.953C116.565 139.227 116.788 139.45 117.062 139.45V138.953V138.457ZM121.154 139.45C121.429 139.45 121.651 139.227 121.651 138.953C121.651 138.679 121.429 138.457 121.154 138.457V138.953V139.45ZM125.247 138.457C124.973 138.457 124.751 138.679 124.751 138.953C124.751 139.227 124.973 139.45 125.247 139.45V138.953V138.457ZM129.34 139.45C129.614 139.45 129.836 139.227 129.836 138.953C129.836 138.679 129.614 138.457 129.34 138.457V138.953V139.45ZM133.432 138.457C133.158 138.457 132.936 138.679 132.936 138.953C132.936 139.227 133.158 139.45 133.432 139.45V138.953V138.457ZM137.207 139.107C137.46 139.002 137.58 138.711 137.475 138.458C137.37 138.205 137.08 138.085 136.826 138.19L137.017 138.648L137.207 139.107ZM138.733 136.283C138.628 136.536 138.748 136.827 139.001 136.932C139.255 137.037 139.545 136.917 139.65 136.664L139.191 136.473L138.733 136.283ZM139.993 132.725C139.993 132.451 139.771 132.229 139.496 132.229C139.222 132.229 139 132.451 139 132.725H139.496H139.993ZM139 128.304C139 128.578 139.222 128.8 139.496 128.8C139.771 128.8 139.993 128.578 139.993 128.304H139.496H139ZM139.993 123.883C139.993 123.609 139.771 123.386 139.496 123.386C139.222 123.386 139 123.609 139 123.883H139.496H139.993ZM139 119.462C139 119.736 139.222 119.958 139.496 119.958C139.771 119.958 139.993 119.736 139.993 119.462H139.496H139ZM139.993 115.041C139.993 114.767 139.771 114.544 139.496 114.544C139.222 114.544 139 114.767 139 115.041H139.496H139.993ZM139 110.62C139 110.894 139.222 111.116 139.496 111.116C139.771 111.116 139.993 110.894 139.993 110.62H139.496H139ZM137.647 107.646C137.38 107.582 137.112 107.746 137.048 108.012C136.983 108.279 137.147 108.547 137.413 108.611L137.53 108.129L137.647 107.646ZM133.646 106.889C133.869 107.049 134.179 106.997 134.338 106.774C134.498 106.55 134.446 106.24 134.223 106.081L133.934 106.485L133.646 106.889ZM131.622 103.355C131.474 103.125 131.167 103.058 130.936 103.207C130.706 103.355 130.639 103.662 130.788 103.893L131.205 103.624L131.622 103.355ZM129.247 100.047C129.299 100.317 129.559 100.493 129.828 100.442C130.098 100.39 130.274 100.13 130.223 99.8606L129.735 99.954L129.247 100.047ZM130.223 96.0926C130.274 95.8233 130.098 95.5632 129.829 95.5116C129.559 95.46 129.299 95.6364 129.248 95.9057L129.735 95.9991L130.223 96.0926ZM130.788 92.0603C130.639 92.2909 130.706 92.5981 130.936 92.7465C131.167 92.895 131.474 92.8284 131.623 92.5979L131.205 92.3291L130.788 92.0603ZM134.223 89.872C134.446 89.7128 134.498 89.4028 134.338 89.1796C134.179 88.9564 133.869 88.9045 133.646 89.0637L133.934 89.4679L134.223 89.872ZM137.413 87.3418C137.147 87.4062 136.983 87.6745 137.048 87.941C137.112 88.2075 137.38 88.3713 137.647 88.3069L137.53 87.8243L137.413 87.3418ZM139.993 85.3333C139.993 85.0592 139.771 84.8369 139.496 84.8369C139.222 84.8369 139 85.0592 139 85.3333H139.496H139.993ZM139 80.9121C139 81.1863 139.222 81.4085 139.496 81.4085C139.771 81.4085 139.993 81.1863 139.993 80.9121H139.496H139ZM139.993 76.4909C139.993 76.2167 139.771 75.9945 139.496 75.9945C139.222 75.9945 139 76.2167 139 76.4909H139.496H139.993ZM139 72.0697C139 72.3438 139.222 72.5661 139.496 72.5661C139.771 72.5661 139.993 72.3438 139.993 72.0697H139.496H139ZM139.993 67.6484C139.993 67.3743 139.771 67.152 139.496 67.152C139.222 67.152 139 67.3743 139 67.6484H139.496H139.993ZM139 63.2272C139 63.5014 139.222 63.7236 139.496 63.7236C139.771 63.7236 139.993 63.5014 139.993 63.2272H139.496H139ZM139.65 59.2887C139.545 59.0355 139.254 58.9154 139.001 59.0204C138.748 59.1255 138.628 59.4159 138.733 59.6692L139.191 59.479L139.65 59.2887ZM136.826 57.7633C137.08 57.8683 137.37 57.7481 137.475 57.4948C137.58 57.2416 137.46 56.9511 137.207 56.8461L137.016 57.3047L136.826 57.7633ZM135.479 57V56.5036H133.432V57V57.4964H135.479V57ZM129.34 57V56.5036H125.247V57V57.4964H129.34V57ZM121.154 57V56.5036H117.062V57V57.4964H121.154V57ZM112.969 57V56.5036H108.877V57V57.4964H112.969V57ZM104.784 57V56.5036H100.691V57V57.4964H104.784V57ZM96.5986 57V56.5036H92.5059V57V57.4964H96.5986V57ZM88.4133 57V56.5036H84.3206V57V57.4964H88.4133V57ZM80.228 57V56.5036H76.1353V57V57.4964H80.228V57ZM72.0427 57V56.5036H67.95V57V57.4964H72.0427V57ZM63.8574 57V56.5036H59.7647V57V57.4964H63.8574V57ZM55.6721 57V56.5036H51.5794V57V57.4964H55.6721V57ZM47.4868 57V56.5036H43.3941V57V57.4964H47.4868V57ZM39.3015 57V56.5036H35.2088V57V57.4964H39.3015V57ZM31.1161 57V56.5036H27.0235V57V57.4964H31.1161V57ZM22.9308 57V56.5036H18.8382V57V57.4964H22.9308V57ZM14.7455 57V56.5036H10.6529V57V57.4964H14.7455V57ZM6.56024 57V56.5036H4.51392V57V57.4964H6.56024V57ZM4.51392 57V56.5036C3.90287 56.5036 3.31898 56.6252 2.7861 56.8461L2.97621 57.3047L3.16631 57.7633C3.58077 57.5915 4.03562 57.4964 4.51392 57.4964V57ZM0.801303 59.479L0.342764 59.2887C0.121724 59.8216 -4.74453e-05 60.4055 -9.06885e-05 61.0166L0.496338 61.0166L0.992766 61.0166C0.9928 60.5383 1.08794 60.0835 1.25984 59.6692L0.801303 59.479ZM0.496338 61.0166H-9.06885e-05V63.2272H0.496338H0.992766V61.0166H0.496338ZM0.496338 67.6484H-9.06885e-05V72.0697H0.496338H0.992766V67.6484H0.496338ZM0.496338 76.4909H-9.06885e-05V80.9121H0.496338H0.992766V76.4909H0.496338ZM0.496338 85.3333H-9.06885e-05V87.5439H0.496338H0.992766V85.3333H0.496338ZM0.496338 87.5439L0.519543 88.0398C0.558931 88.038 0.598362 88.0364 0.637837 88.035L0.620302 87.5389L0.602767 87.0427C0.559478 87.0443 0.516266 87.046 0.473133 87.0481L0.496338 87.5439ZM0.868365 87.533L0.874303 88.0294C0.913642 88.0289 0.953024 88.0287 0.992449 88.0287L0.992432 87.5322L0.992415 87.0358C0.949012 87.0358 0.905683 87.0361 0.862428 87.0366L0.868365 87.533ZM0.992432 87.5322V88.0287C1.65747 88.0287 2.3068 88.0938 2.93453 88.218L3.03086 87.731L3.12719 87.244C2.43635 87.1074 1.7225 87.0358 0.992432 87.0358V87.5322ZM6.79579 89.2913L6.51964 89.7038C7.60479 90.4302 8.53919 91.3645 9.26571 92.4496L9.6782 92.1734L10.0907 91.8972C9.29198 90.7043 8.26493 89.6774 7.07194 88.8788L6.79579 89.2913ZM11.2389 95.9381L10.7519 96.0345C10.8761 96.6622 10.9413 97.3115 10.9413 97.9766L11.4377 97.9766L11.9342 97.9765C11.9341 97.2465 11.8625 96.5326 11.7258 95.8418L11.2389 95.9381ZM11.4377 97.9766H10.9413C10.9413 98.6416 10.8761 99.291 10.7519 99.9187L11.2389 100.015L11.7259 100.111C11.8626 99.4206 11.9342 98.7067 11.9342 97.9766H11.4377ZM9.67835 103.78L9.26583 103.504C8.53934 104.589 7.60494 105.523 6.5198 106.25L6.79597 106.662L7.07215 107.075C8.26513 106.276 9.29217 105.249 10.0909 104.056L9.67835 103.78ZM3.03095 108.223L2.9346 107.736C2.30685 107.86 1.6575 107.925 0.992432 107.925V108.422V108.918C1.72254 108.918 2.43642 108.847 3.1273 108.71L3.03095 108.223ZM0.992432 108.422L0.992449 107.925C0.953502 107.925 0.914487 107.925 0.87539 107.925L0.86836 108.421L0.861331 108.917C0.904829 108.918 0.948527 108.918 0.992415 108.918L0.992432 108.422ZM0.620302 108.414L0.638941 107.918C0.599221 107.917 0.559429 107.915 0.519545 107.913L0.496338 108.409L0.473131 108.905C0.515772 108.907 0.558622 108.909 0.601663 108.911L0.620302 108.414ZM0.496338 108.409H-9.06885e-05V110.62H0.496338H0.992766V108.409H0.496338ZM0.496338 115.041H-9.06885e-05V119.462H0.496338H0.992766V115.041H0.496338ZM0.496338 123.883H-9.06885e-05V128.304H0.496338H0.992766V123.883H0.496338ZM0.496338 132.725H-9.06885e-05V134.936H0.496338H0.992766V132.725H0.496338ZM0.496338 134.936H-9.06885e-05C-9.06885e-05 135.547 0.121652 136.131 0.342667 136.664L0.801225 136.473L1.25978 136.283C1.08789 135.869 0.992766 135.414 0.992766 134.936H0.496338ZM2.97606 138.648L2.78589 139.107C3.31881 139.328 3.90278 139.45 4.51392 139.45V138.953V138.457C4.03559 138.457 3.58072 138.362 3.16623 138.19L2.97606 138.648ZM4.51392 138.953V139.45H6.56024V138.953V138.457H4.51392V138.953ZM10.6529 138.953V139.45H14.7455V138.953V138.457H10.6529V138.953ZM18.8382 138.953V139.45H22.9308V138.953V138.457H18.8382V138.953ZM27.0235 138.953V139.45H31.1161V138.953V138.457H27.0235V138.953ZM35.2088 138.953V139.45H39.3015V138.953V138.457H35.2088V138.953ZM43.3941 138.953V139.45H47.4868V138.953V138.457H43.3941V138.953ZM51.5794 138.953V139.45H55.6721V138.953V138.457H51.5794V138.953ZM59.7647 138.953V139.45H63.8574V138.953V138.457H59.7647V138.953ZM67.95 138.953V139.45H72.0427V138.953V138.457H67.95V138.953ZM76.1353 138.953V139.45H80.228V138.953V138.457H76.1353V138.953ZM84.3206 138.953V139.45H88.4133V138.953V138.457H84.3206V138.953ZM92.5059 138.953V139.45H96.5986V138.953V138.457H92.5059V138.953ZM100.691 138.953V139.45H104.784V138.953V138.457H100.691V138.953ZM108.877 138.953V139.45H112.969V138.953V138.457H108.877V138.953ZM117.062 138.953V139.45H121.154V138.953V138.457H117.062V138.953ZM125.247 138.953V139.45H129.34V138.953V138.457H125.247V138.953ZM133.432 138.953V139.45H135.479V138.953V138.457H133.432V138.953ZM135.479 138.953V139.45C136.09 139.45 136.674 139.328 137.207 139.107L137.017 138.648L136.826 138.19C136.412 138.362 135.957 138.457 135.479 138.457V138.953ZM139.191 136.473L139.65 136.664C139.871 136.131 139.993 135.547 139.993 134.936H139.496H139C139 135.414 138.905 135.869 138.733 136.283L139.191 136.473ZM139.496 134.936H139.993V132.725H139.496H139V134.936H139.496ZM139.496 128.304H139.993V123.883H139.496H139V128.304H139.496ZM139.496 119.462H139.993V115.041H139.496H139V119.462H139.496ZM139.496 110.62H139.993V108.409H139.496H139V110.62H139.496ZM139.496 108.409L139.52 107.913C138.877 107.883 138.251 107.792 137.647 107.646L137.53 108.129L137.413 108.611C138.079 108.772 138.767 108.872 139.473 108.905L139.496 108.409ZM133.934 106.485L134.223 106.081C133.193 105.347 132.309 104.421 131.622 103.355L131.205 103.624L130.788 103.893C131.542 105.064 132.514 106.082 133.646 106.889L133.934 106.485ZM129.735 99.954L130.223 99.8606C130.106 99.2509 130.045 98.6211 130.045 97.9766H129.548H129.052C129.052 98.6842 129.119 99.3765 129.247 100.047L129.735 99.954ZM129.548 97.9766L130.045 97.9766C130.045 97.332 130.106 96.7022 130.223 96.0926L129.735 95.9991L129.248 95.9057C129.119 96.5766 129.052 97.269 129.052 97.9765L129.548 97.9766ZM131.205 92.3291L131.623 92.5979C132.309 91.5326 133.193 90.6066 134.223 89.872L133.934 89.4679L133.646 89.0637C132.514 89.8712 131.542 90.889 130.788 92.0603L131.205 92.3291ZM137.53 87.8243L137.647 88.3069C138.251 88.1608 138.877 88.0699 139.52 88.0398L139.496 87.5439L139.473 87.0481C138.767 87.0811 138.079 87.181 137.413 87.3418L137.53 87.8243ZM139.496 87.5439H139.993V85.3333H139.496H139V87.5439H139.496ZM139.496 80.9121H139.993V76.4909H139.496H139V80.9121H139.496ZM139.496 72.0697H139.993V67.6484H139.496H139V72.0697H139.496ZM139.496 63.2272H139.993V61.0166H139.496H139V63.2272H139.496ZM139.496 61.0166L139.993 61.0166C139.993 60.4055 139.871 59.8216 139.65 59.2887L139.191 59.479L138.733 59.6692C138.905 60.0835 139 60.5383 139 61.0166L139.496 61.0166ZM137.016 57.3047L137.207 56.8461C136.674 56.6252 136.09 56.5036 135.479 56.5036V57V57.4964C135.957 57.4964 136.412 57.5915 136.826 57.7633L137.016 57.3047Z" fill="#D6D9E4"/>
<line x1="111.2" y1="65.4388" x2="111.2" y2="129.975" stroke="#D6D9E4" stroke-width="0.992857" stroke-linecap="round" stroke-dasharray="3.97 3.97"/>
<path d="M70.5583 82.8145C78.5457 82.8145 85.0212 89.29 85.0212 97.2773C85.0211 105.265 78.5456 111.739 70.5583 111.739C62.5713 111.739 56.0965 105.264 56.0964 97.2773C56.0964 89.2901 62.5712 82.8147 70.5583 82.8145Z" fill="#D6D9E4"/>
<path d="M72.4454 90.9746L72.1598 100.552H69.4371L69.1514 90.9746H72.4454ZM69.0753 103.218C69.0562 102.285 69.8464 101.523 70.7889 101.523C71.7029 101.523 72.5121 102.285 72.5216 103.218C72.5121 104.179 71.7029 104.95 70.7889 104.95C69.8464 104.95 69.0562 104.179 69.0753 103.218Z" fill="white"/>
</svg>
