<svg width="22" height="22" viewBox="0 0 22 22" fill="none" xmlns="http://www.w3.org/2000/svg">
<path d="M11.0004 2.75012C15.5567 2.75012 19.2504 6.44378 19.2504 11.0001C19.2504 15.5565 15.5567 19.2501 11.0004 19.2501C6.44416 19.25 2.75037 15.5564 2.75037 11.0001C2.75038 6.44389 6.44417 2.75029 11.0004 2.75012ZM11.0013 6.81262C10.5871 6.81262 10.2513 7.14841 10.2513 7.56262V11.59C10.2514 11.7842 10.3273 11.9707 10.4623 12.1105L13.2123 14.9581C13.5 15.2558 13.974 15.2643 14.2719 14.9767C14.5697 14.6891 14.5778 14.2151 14.2904 13.9171L11.7513 11.2863V7.56262C11.7513 7.14851 11.4154 6.81279 11.0013 6.81262Z" fill="currentColor"/>
</svg>
