<svg width="22" height="22" viewBox="0 0 22 22" fill="currentColor" xmlns="http://www.w3.org/2000/svg">
<path d="M14.0279 3.66242L13.1528 4.53737C12.8611 4.82897 12.8611 5.3018 13.1528 5.5934L16.4063 8.84642C16.6979 9.13795 17.1706 9.13795 17.4622 8.84642L18.3375 7.9713C18.7625 7.54947 19 6.97454 19 6.37461C19 5.77468 18.7625 5.19974 18.3375 4.77792L17.2218 3.66242C16.7999 3.23747 16.2249 3 15.6248 3C15.0248 3 14.4498 3.23747 14.0279 3.66242ZM12.0931 6.65236C11.8015 6.36087 11.3289 6.36082 11.0373 6.65223L4.8399 12.8457C4.50551 13.1801 4.26174 13.5988 4.13361 14.055L3.02731 18.0483C2.95543 18.3076 3.02731 18.5888 3.22107 18.7794C3.41483 18.97 3.69297 19.045 3.95235 18.9731L7.94631 17.8639C8.40258 17.7358 8.81823 17.4952 9.15575 17.1577L15.3472 10.9615C15.6386 10.6699 15.6385 10.1972 15.347 9.90574L12.0931 6.65236Z" fill="currentColor"/>
</svg>
