<svg width="139" height="139" viewBox="0 0 139 139" fill="none" xmlns="http://www.w3.org/2000/svg">
<path d="M69.4091 26C51.4635 26 36.9157 40.8509 36.9157 59.1705V78.9941L33.0863 82.9033C31.5375 84.4844 31.0742 86.8623 31.9124 88.9281C32.7506 90.994 34.7253 92.3409 36.9157 92.3409H101.902C104.093 92.3409 106.068 90.994 106.906 88.9281C107.744 86.8623 107.281 84.4844 105.732 82.9033L101.902 78.9941V59.1705C101.902 40.8509 87.3547 26 69.4091 26Z" fill="#F7F7FA"/>
<path d="M69.4089 114.455C61.9192 114.455 55.6132 109.281 53.7332 102.243C53.1028 99.8835 55.1424 97.8693 57.585 97.8693H81.2329C83.6755 97.8693 85.715 99.8835 85.0846 102.243C83.2047 109.281 76.8987 114.455 69.4089 114.455Z" fill="#F7F7FA"/>
<path d="M69.4091 26C51.4635 26 36.9157 40.8509 36.9157 59.1705V78.9941L33.0863 82.9033C31.5375 84.4844 31.0742 86.8623 31.9124 88.9281C32.7506 90.994 34.7253 92.3409 36.9157 92.3409H101.902C104.093 92.3409 106.068 90.994 106.906 88.9281C107.744 86.8623 107.281 84.4844 105.732 82.9033L101.902 78.9941V59.1705C101.902 40.8509 87.3547 26 69.4091 26Z" stroke="#D6D9E4" stroke-linecap="round" stroke-dasharray="3 4"/>
<path d="M69.4089 114.455C61.9192 114.455 55.6132 109.281 53.7332 102.243C53.1028 99.8835 55.1424 97.8693 57.585 97.8693H81.2329C83.6755 97.8693 85.715 99.8835 85.0846 102.243C83.2047 109.281 76.8987 114.455 69.4089 114.455Z" stroke="#D6D9E4" stroke-linecap="round" stroke-dasharray="3 4"/>
<path d="M96.9619 26C104.949 26 111.425 32.4756 111.425 40.4629C111.425 48.4501 104.949 54.9248 96.9619 54.9248C88.9748 54.9246 82.5001 48.45 82.5 40.4629C82.5 32.4757 88.9748 26.0002 96.9619 26Z" fill="#D6D9E4"/>
<path d="M98.849 34.1602L98.5634 43.7375H95.8406L95.555 34.1602H98.849ZM95.4789 46.4031C95.4598 45.4702 96.25 44.7085 97.1925 44.7085C98.1064 44.7085 98.9156 45.4702 98.9252 46.4031C98.9156 47.3647 98.1064 48.1358 97.1925 48.1358C96.25 48.1358 95.4598 47.3647 95.4789 46.4031Z" fill="white"/>
</svg>
