<svg width="22" height="22" viewBox="0 0 22 22" fill="none" xmlns="http://www.w3.org/2000/svg">
<path fill-rule="evenodd" clip-rule="evenodd" d="M6.99866 3.00012C6.44637 3.00012 5.99866 3.44784 5.99866 4.00012V5.00012H4.99866C3.89409 5.00012 2.99866 5.89555 2.99866 7.00012V17.0001C2.99866 18.1047 3.89409 19.0001 4.99866 19.0001H16.9987C18.1032 19.0001 18.9987 18.1047 18.9987 17.0001V7.00012C18.9987 5.89555 18.1032 5.00012 16.9987 5.00012H15.9987V4.00012C15.9987 3.44784 15.5509 3.00012 14.9987 3.00012C14.4464 3.00012 13.9987 3.44784 13.9987 4.00012V5.00012H7.99866V4.00012C7.99866 3.44784 7.55094 3.00012 6.99866 3.00012ZM6.99866 8.00012C6.44637 8.00012 5.99866 8.44784 5.99866 9.00012C5.99866 9.55241 6.44637 10.0001 6.99866 10.0001H14.9987C15.5509 10.0001 15.9987 9.55241 15.9987 9.00012C15.9987 8.44784 15.5509 8.00012 14.9987 8.00012H6.99866Z" fill="currentColor"/>
</svg>
