<svg width="22" height="22" viewBox="0 0 22 22" fill="none" xmlns="http://www.w3.org/2000/svg">
<path d="M6 4C5.44772 4 5 4.44772 5 5C5 5.55228 5.44772 6 6 6C11.5228 6 16 10.4772 16 16C16 16.5523 16.4477 17 17 17C17.5523 17 18 16.5523 18 16C18 9.37258 12.6274 4 6 4Z" fill="#36D69D"/>
<path d="M5 10C5 9.44772 5.44772 9 6 9C9.86599 9 13 12.134 13 16C13 16.5523 12.5523 17 12 17C11.4477 17 11 16.5523 11 16C11 13.2386 8.76142 11 6 11C5.44772 11 5 10.5523 5 10Z" fill="#36D69D"/>
<path d="M4 16C4 14.8954 4.89543 14 6 14C7.10457 14 8 14.8954 8 16C8 17.1046 7.10457 18 6 18C4.89543 18 4 17.1046 4 16Z" fill="#36D69D"/>
</svg>
