<svg width="24" height="24" viewBox="0 0 24 24" fill="none" xmlns="http://www.w3.org/2000/svg">
<path d="M10.0236 5.29695C9.83672 4.65695 10.3168 4.01665 10.9836 4.01665H20.2223C21.0224 4.01665 21.4985 4.90955 21.0527 5.57395L18.9581 8.69535C18.7004 9.07925 18.7396 9.58985 19.0529 9.92995L21.886 13.0058C22.4762 13.6467 22.0216 14.6833 21.1504 14.6833H13.5141C13.0698 14.6833 12.6788 14.3901 12.5542 13.9636L10.0236 5.29695Z" fill="url(#paint0_linear_524_15277)"/>
<path d="M6.92897 1C7.37817 1 7.77227 1.2995 7.89247 1.7323L10.6708 11.7323C10.8479 12.3695 10.3687 13 9.70727 13H8.07287C7.41277 13 6.93377 13.6282 7.10847 14.2647L9.39217 22.583C9.54157 23.1284 9.13057 23.667 8.56497 23.667C8.17897 23.667 7.84097 23.4084 7.73887 23.0361L2.03625 2.2647C1.8615 1.6282 2.3405 1 3.00057 1H6.92897Z" fill="url(#paint1_linear_524_15277)"/>
<defs>
<linearGradient id="paint0_linear_524_15277" x1="9.64982" y1="4.34995" x2="24.4999" y2="15" gradientUnits="userSpaceOnUse">
<stop stop-color="#ACF6D6"/>
<stop offset="1" stop-color="#16C284"/>
</linearGradient>
<linearGradient id="paint1_linear_524_15277" x1="7.68927" y1="1" x2="9.68927" y2="23" gradientUnits="userSpaceOnUse">
<stop stop-color="#6EE7B7"/>
<stop offset="1" stop-color="#34D399"/>
</linearGradient>
</defs>
</svg>
