<svg width="14" height="14" viewBox="0 0 14 14" fill="none" xmlns="http://www.w3.org/2000/svg">
<path d="M5.84717 3.08998C5.73815 2.71665 6.01821 2.34314 6.40717 2.34314H11.7964C12.2631 2.34314 12.5409 2.864 12.2808 3.25156L11.059 5.07238C10.9086 5.29632 10.9315 5.59417 11.1143 5.79256L12.7669 7.58684C13.1112 7.9607 12.846 8.56538 12.3378 8.56538H7.8833C7.62412 8.56538 7.39604 8.39435 7.32336 8.14556L5.84717 3.08998Z" fill="currentColor"/>
<path d="M4.04192 0.583374C4.30395 0.583374 4.53385 0.758082 4.60396 1.01055L6.22464 6.84388C6.32795 7.21558 6.04841 7.58337 5.6626 7.58337H4.7092C4.32414 7.58337 4.04472 7.94982 4.14663 8.32112L5.47879 13.1735C5.56594 13.4916 5.32619 13.8058 4.99625 13.8058C4.77109 13.8058 4.57392 13.6549 4.51436 13.4378L1.18783 1.32112C1.0859 0.949824 1.36531 0.583374 1.75035 0.583374H4.04192Z" fill="currentColor"/>
</svg>
