<svg width="22" height="22" viewBox="0 0 22 22" fill="none" xmlns="http://www.w3.org/2000/svg">
<path d="M13.0881 3C13.8471 3 14.4676 3.58784 14.5217 4.33301H16.3333C17.0696 4.33301 17.6672 4.9306 17.6672 5.66699C17.6671 6.33381 17.1767 6.88419 16.5374 6.98242C16.5907 7.06492 16.6418 7.14917 16.6868 7.2373C17.0004 7.85278 17.0002 8.65909 17.0002 10.2705V14.3965C17.0002 16.0077 17.0002 16.8133 16.6868 17.4287C16.411 17.97 15.9712 18.4107 15.4299 18.6865C14.8145 19.0001 14.0081 19 12.3967 19H9.60376C7.99259 19 7.18697 19 6.57153 18.6865C6.03014 18.4107 5.58957 17.9701 5.31372 17.4287C5.00032 16.8133 5.00024 16.0076 5.00024 14.3965V10.2705C5.00024 8.65909 5.00012 7.85278 5.31372 7.2373C5.35855 7.14933 5.40892 7.06478 5.46216 6.98242C4.82309 6.88393 4.33344 6.33359 4.33325 5.66699C4.33325 4.93071 4.93003 4.3332 5.66626 4.33301H7.33911C7.39324 3.58784 8.01373 3 8.77271 3H13.0881ZM12.7961 8.96484C12.399 8.96486 12.0767 9.28655 12.0764 9.68359V14C12.0764 14.3972 12.3989 14.7197 12.7961 14.7197C13.1934 14.7197 13.5158 14.3972 13.5159 14V9.68359C13.5156 9.28654 13.1933 8.96484 12.7961 8.96484ZM9.20044 8.96484C8.80331 8.96484 8.48094 9.28652 8.48071 9.68359V14C8.48077 14.3972 8.80321 14.7188 9.20044 14.7188C9.59752 14.7186 9.91914 14.3971 9.91919 14V9.68359C9.91896 9.28663 9.59742 8.96502 9.20044 8.96484Z" fill="#1D2028"/>
</svg>
