<svg width="22" height="22" viewBox="0 0 22 22" fill="none" xmlns="http://www.w3.org/2000/svg">
<path fill-rule="evenodd" clip-rule="evenodd" d="M20 11C20 15.4183 15.9706 19 11 19C9.32191 19 7.75108 18.5918 6.40637 17.8809L2.97462 18.7525C2.57429 18.8541 2.23031 18.4541 2.39086 18.0735L3.50559 15.4312C2.5544 14.1626 2 12.6389 2 11C2 6.58172 6.02944 3 11 3C15.9706 3 20 6.58172 20 11ZM7.625 10.9821C7.625 10.3608 7.12132 9.85714 6.5 9.85714C5.87868 9.85714 5.375 10.3608 5.375 10.9821V11.0179C5.375 11.6392 5.87868 12.1429 6.5 12.1429C7.12132 12.1429 7.625 11.6392 7.625 11.0179V10.9821ZM16.625 10.9821C16.625 10.3608 16.1213 9.85714 15.5 9.85714C14.8787 9.85714 14.375 10.3608 14.375 10.9821V11.0179C14.375 11.6392 14.8787 12.1429 15.5 12.1429C16.1213 12.1429 16.625 11.6392 16.625 11.0179V10.9821ZM9.875 10.9821C9.875 10.3608 10.3787 9.85714 11 9.85714C11.6213 9.85714 12.125 10.3608 12.125 10.9821V11.0179C12.125 11.6392 11.6213 12.1429 11 12.1429C10.3787 12.1429 9.875 11.6392 9.875 11.0179V10.9821Z" fill="#1D2028"/>
</svg>
