<svg width="22" height="22" viewBox="0 0 22 22" fill="none" xmlns="http://www.w3.org/2000/svg">
<path d="M9.68848 4.4375C9.68848 4.7856 9.82676 5.11944 10.0729 5.36558C10.319 5.61172 10.6529 5.75 11.001 5.75C11.3491 5.75 11.6829 5.61172 11.9291 5.36558C12.1752 5.11944 12.3135 4.7856 12.3135 4.4375C12.3135 4.0894 12.1752 3.75556 11.9291 3.50942C11.6829 3.26328 11.3491 3.125 11.001 3.125C10.6529 3.125 10.319 3.26328 10.0729 3.50942C9.82676 3.75556 9.68848 4.0894 9.68848 4.4375ZM9.68848 11C9.68848 11.3481 9.82676 11.6819 10.0729 11.9281C10.319 12.1742 10.6529 12.3125 11.001 12.3125C11.3491 12.3125 11.6829 12.1742 11.9291 11.9281C12.1752 11.6819 12.3135 11.3481 12.3135 11C12.3135 10.6519 12.1752 10.3181 11.9291 10.0719C11.6829 9.82578 11.3491 9.6875 11.001 9.6875C10.6529 9.6875 10.319 9.82578 10.0729 10.0719C9.82676 10.3181 9.68848 10.6519 9.68848 11ZM9.68848 17.5625C9.68848 17.9106 9.82676 18.2444 10.0729 18.4906C10.319 18.7367 10.6529 18.875 11.001 18.875C11.3491 18.875 11.6829 18.7367 11.9291 18.4906C12.1752 18.2444 12.3135 17.9106 12.3135 17.5625C12.3135 17.2144 12.1752 16.8806 11.9291 16.6344C11.6829 16.3883 11.3491 16.25 11.001 16.25C10.6529 16.25 10.319 16.3883 10.0729 16.6344C9.82676 16.8806 9.68848 17.2144 9.68848 17.5625Z" fill="#1D2028"/>
</svg>
