<svg width="26" height="26" viewBox="0 0 26 26" fill="none" xmlns="http://www.w3.org/2000/svg">
<path d="M12.9998 4.72742C9.64305 4.72742 6.92189 7.50529 6.92189 10.932V14.64L6.2056 15.3712C5.91589 15.667 5.82922 16.1117 5.98601 16.4981C6.1428 16.8846 6.51217 17.1365 6.92189 17.1365H19.0777C19.4874 17.1365 19.8568 16.8846 20.0136 16.4981C20.1703 16.1117 20.0837 15.667 19.794 15.3712L19.0777 14.64V10.932C19.0777 7.50529 16.3565 4.72742 12.9998 4.72742Z" fill="#1D2028"/>
<path d="M12.9998 21.2729C11.5988 21.2729 10.4193 20.3051 10.0676 18.9888C9.94969 18.5474 10.3312 18.1706 10.7881 18.1706H15.2114C15.6683 18.1706 16.0498 18.5474 15.9319 18.9888C15.5803 20.3051 14.4007 21.2729 12.9998 21.2729Z" fill="#1D2028"/>
</svg>
