<svg width="22" height="22" viewBox="0 0 22 22" fill="none" xmlns="http://www.w3.org/2000/svg">
<path fill-rule="evenodd" clip-rule="evenodd" d="M3.5 6.14287C3.5 4.36767 4.93908 2.92859 6.71428 2.92859H17.4286C17.8344 2.92859 18.2054 3.15788 18.3869 3.52086C18.5684 3.88384 18.5292 4.31821 18.2857 4.64287L15.5536 8.28573L18.2857 11.9286C18.5292 12.2532 18.5684 12.6876 18.3869 13.0506C18.2054 13.4136 17.8344 13.6429 17.4286 13.6429H6.71428C6.12255 13.6429 5.64286 14.1226 5.64286 14.7143V17.9286C5.64286 18.5203 5.16316 19 4.57143 19C3.97969 19 3.5 18.5203 3.5 17.9286V6.14287Z" fill="currentColor"/>
</svg>
