<svg width="22" height="22" viewBox="0 0 22 22" fill="none" xmlns="http://www.w3.org/2000/svg">
<path d="M10.9998 4.00012C8.15951 4.00012 5.85698 6.35063 5.85698 9.25012V12.3877L5.25089 13.0064C5.00575 13.2567 4.93242 13.633 5.06509 13.96C5.19776 14.2869 5.5103 14.5001 5.85698 14.5001H16.1427C16.4893 14.5001 16.8019 14.2869 16.9345 13.96C17.0672 13.633 16.9939 13.2567 16.7487 13.0064L16.1427 12.3877V9.25012C16.1427 6.35063 13.8401 4.00012 10.9998 4.00012Z" fill="#1D2028"/>
<path d="M10.9998 18.0001C9.81437 18.0001 8.81629 17.1813 8.51874 16.0674C8.41897 15.6939 8.74177 15.3751 9.12837 15.3751H12.8712C13.2578 15.3751 13.5806 15.6939 13.4808 16.0674C13.1833 17.1813 12.1852 18.0001 10.9998 18.0001Z" fill="#1D2028"/>
</svg>
