<svg width="22" height="22" viewBox="0 0 22 22" fill="none" xmlns="http://www.w3.org/2000/svg">
<path fill-rule="evenodd" clip-rule="evenodd" d="M19.8 11C19.8 15.8601 15.8601 19.8 11 19.8C6.13991 19.8 2.20001 15.8601 2.20001 11C2.20001 6.13985 6.13991 2.19995 11 2.19995C15.8601 2.19995 19.8 6.13985 19.8 11ZM12.1 15.4C12.1 16.0075 11.6075 16.5 11 16.5C10.3925 16.5 9.90001 16.0075 9.90001 15.4C9.90001 14.7924 10.3925 14.3 11 14.3C11.6075 14.3 12.1 14.7924 12.1 15.4ZM11 5.49995C10.3925 5.49995 9.90001 5.99244 9.90001 6.59995V11C9.90001 11.6075 10.3925 12.1 11 12.1C11.6075 12.1 12.1 11.6075 12.1 11V6.59995C12.1 5.99244 11.6075 5.49995 11 5.49995Z" fill="#A9B0BB"/>
</svg>
