<svg width="22" height="22" viewBox="0 0 22 22" fill="none" xmlns="http://www.w3.org/2000/svg">
<circle cx="14.6" cy="5.40005" r="1.6" fill="#36D69D"/>
<path d="M12.8712 15.375C13.2578 15.375 13.5804 15.6939 13.4806 16.0674C13.183 17.1811 12.1854 17.9999 11.0001 18C9.81471 18 8.81623 17.1812 8.51868 16.0674C8.41891 15.6939 8.74244 15.375 9.12903 15.375H12.8712ZM11.0001 4C11.4874 4.00001 11.9587 4.06998 12.4054 4.19922C12.2101 4.55546 12.0997 4.96544 12.0997 5.40039C12.1 6.78082 13.2193 7.90025 14.5997 7.90039C15.0617 7.90039 15.4931 7.77215 15.8644 7.55371C16.0429 8.08603 16.1427 8.65589 16.1427 9.25V12.3877L16.7491 13.0059C16.9943 13.2561 17.0674 13.633 16.9347 13.96C16.802 14.2869 16.4893 14.5 16.1427 14.5H5.85754C5.51094 14.5 5.19826 14.2868 5.06555 13.96C4.93289 13.633 5.00597 13.2561 5.2511 13.0059L5.85754 12.3877V9.25C5.85754 6.35051 8.15982 4.00001 11.0001 4Z" fill="#1D2028"/>
</svg>
