<svg width="25" height="25" viewBox="0 0 25 25" fill="none" xmlns="http://www.w3.org/2000/svg">
<path fill-rule="evenodd" clip-rule="evenodd" d="M4.6 5.6C3.16406 5.6 2 6.76406 2 8.2V18.6C2 20.0359 3.16406 21.2 4.6 21.2H20.2C21.6359 21.2 22.8 20.0359 22.8 18.6V8.2C22.8 6.76406 21.6359 5.6 20.2 5.6H18.1385C17.7937 5.6 17.463 5.46304 17.2192 5.21924L15.7615 3.76152C15.2739 3.27393 14.6126 3 13.923 3H10.877C10.1874 3 9.52607 3.27393 9.03848 3.76152L7.58076 5.21924C7.33696 5.46304 7.0063 5.6 6.66152 5.6H4.6ZM12.4 17.3C14.5539 17.3 16.3 15.5539 16.3 13.4C16.3 11.2461 14.5539 9.5 12.4 9.5C10.2461 9.5 8.5 11.2461 8.5 13.4C8.5 15.5539 10.2461 17.3 12.4 17.3Z" fill="#A9B0BB"/>
</svg>
