<svg width="22" height="22" viewBox="0 0 22 22" fill="none" xmlns="http://www.w3.org/2000/svg">
<path d="M11 4C8.15969 4 5.85716 6.35051 5.85716 9.25V12.3876L5.25108 13.0063C5.00594 13.2565 4.9326 13.6329 5.06527 13.9598C5.19794 14.2868 5.51048 14.5 5.85716 14.5H16.1428C16.4895 14.5 16.8021 14.2868 16.9347 13.9598C17.0674 13.6329 16.9941 13.2565 16.7489 13.0063L16.1428 12.3876V9.25C16.1428 6.35051 13.8403 4 11 4Z" fill="white"/>
<path d="M11 18C9.81455 18 8.81647 17.1811 8.51893 16.0673C8.41915 15.6938 8.74196 15.375 9.12856 15.375H12.8714C13.258 15.375 13.5808 15.6938 13.481 16.0673C13.1835 17.1811 12.1854 18 11 18Z" fill="white"/>
</svg>
