<svg width="22" height="22" viewBox="0 0 22 22" fill="none" xmlns="http://www.w3.org/2000/svg">
<path d="M9.68848 4.41406C9.68848 4.76216 9.82676 5.096 10.0729 5.34214C10.319 5.58828 10.6529 5.72656 11.001 5.72656C11.3491 5.72656 11.6829 5.58828 11.9291 5.34214C12.1752 5.096 12.3135 4.76216 12.3135 4.41406C12.3135 4.06597 12.1752 3.73213 11.9291 3.48598C11.6829 3.23984 11.3491 3.10156 11.001 3.10156C10.6529 3.10156 10.319 3.23984 10.0729 3.48598C9.82676 3.73213 9.68848 4.06597 9.68848 4.41406ZM9.68848 10.9766C9.68848 11.3247 9.82676 11.6585 10.0729 11.9046C10.319 12.1508 10.6529 12.2891 11.001 12.2891C11.3491 12.2891 11.6829 12.1508 11.9291 11.9046C12.1752 11.6585 12.3135 11.3247 12.3135 10.9766C12.3135 10.6285 12.1752 10.2946 11.9291 10.0485C11.6829 9.80234 11.3491 9.66406 11.001 9.66406C10.6529 9.66406 10.319 9.80234 10.0729 10.0485C9.82676 10.2946 9.68848 10.6285 9.68848 10.9766ZM9.68848 17.5391C9.68848 17.8872 9.82676 18.221 10.0729 18.4671C10.319 18.7133 10.6529 18.8516 11.001 18.8516C11.3491 18.8516 11.6829 18.7133 11.9291 18.4671C12.1752 18.221 12.3135 17.8872 12.3135 17.5391C12.3135 17.191 12.1752 16.8571 11.9291 16.611C11.6829 16.3648 11.3491 16.2266 11.001 16.2266C10.6529 16.2266 10.319 16.3648 10.0729 16.611C9.82676 16.8571 9.68848 17.191 9.68848 17.5391Z" fill="#1D2028"/>
</svg>
